<?xml version="1.0" encoding="UTF-8"?>
<svg version="1.1" xmlns="http://www.w3.org/2000/svg" width="250" height="250">
<path d="M0 0 C4.03451134 3.06435521 7.71864046 6.38690126 11.16796875 10.1015625 C11.78414062 10.74738281 12.4003125 11.39320312 13.03515625 12.05859375 C27.52086646 27.66489664 33.10180064 46.50951299 32.59765625 67.48046875 C32.08098396 76.80142933 29.3127521 85.36980308 26.16796875 94.1015625 C25.82475586 95.05482422 25.48154297 96.00808594 25.12792969 96.99023438 C19.08226294 113.42537132 11.56977528 129.14354064 3.79736328 144.81201172 C2.353818 147.72635531 0.92698638 150.64795756 -0.4921875 153.57421875 C-6.23063073 165.33411584 -12.59034477 176.69288687 -19.09375 188.04394531 C-20.90285414 191.22613916 -22.68361625 194.42278973 -24.45703125 197.625 C-30.58511594 208.68644759 -36.74472572 219.62060009 -43.83203125 230.1015625 C-47.41496165 228.90725237 -47.67360444 228.17239013 -49.51171875 225 C-50.0214624 224.12956055 -50.53120605 223.25912109 -51.05639648 222.36230469 C-51.60110596 221.41000977 -52.14581543 220.45771484 -52.70703125 219.4765625 C-53.28074463 218.48817383 -53.85445801 217.49978516 -54.44555664 216.48144531 C-56.25164467 213.3607855 -58.04319949 210.23214063 -59.83203125 207.1015625 C-60.65018311 205.6779541 -60.65018311 205.6779541 -61.48486328 204.22558594 C-130.35350787 84.298791 -130.35350787 84.298791 -120.26953125 43.6640625 C-116.36573152 29.39320658 -108.67870188 17.15457431 -97.83203125 7.1015625 C-97.24550781 6.50988281 -96.65898438 5.91820313 -96.0546875 5.30859375 C-69.80988744 -19.95874634 -29.18038628 -19.56092101 0 0 Z M-89.421875 24.2734375 C-99.59658183 36.21263968 -104.43876003 50.94493711 -104.14453125 66.5390625 C-102.62494212 83.8623786 -95.41983894 97.27420509 -82.7109375 109.0703125 C-68.83741609 120.67824968 -53.27439256 123.27556759 -35.83203125 122.1015625 C-19.99703723 120.08553317 -7.02125097 110.77164431 2.98046875 98.7265625 C11.77128911 86.77104681 15.64936185 71.83226921 14.16796875 57.1015625 C11.7972072 42.13168272 5.87734638 30.84891665 -4.83203125 20.1015625 C-5.3734375 19.53695312 -5.91484375 18.97234375 -6.47265625 18.390625 C-18.67449338 6.74341683 -34.33201362 4.49197413 -50.3984375 4.79296875 C-66.02520797 5.44039039 -78.84373158 13.13214112 -89.421875 24.2734375 Z " fill="#7a7523" transform="translate(169.83203125,17.8984375)"/>
<path d="M0 0 C10.56 0 21.12 0 32 0 C32 8.25 32 16.5 32 25 C40.25 25 48.5 25 57 25 C57 35.56 57 46.12 57 57 C48.75 57 40.5 57 32 57 C32 65.25 32 73.5 32 82 C21.44 82 10.88 82 0 82 C0 73.75 0 65.5 0 57 C-8.25 57 -16.5 57 -25 57 C-25 46.44 -25 35.88 -25 25 C-16.75 25 -8.5 25 0 25 C0 16.75 0 8.5 0 0 Z " fill="#5c0c0c" transform="translate(109,40)"/>
</svg>
