<?xml version="1.0" encoding="UTF-8"?>
<svg version="1.1" xmlns="http://www.w3.org/2000/svg" width="250" height="250">
<path d="M0 0 C0.80308594 0.45503906 1.60617188 0.91007812 2.43359375 1.37890625 C17.94810537 11.17878802 28.75935534 27.36658493 33 45 C33.19078125 45.74507812 33.3815625 46.49015625 33.578125 47.2578125 C36.05152159 63.33489031 33.50997392 78.26395587 27 93 C26.34 93 25.68 93 25 93 C24.62875 94.2375 24.62875 94.2375 24.25 95.5 C22.81295189 99.52373471 20.97645485 103.21979024 19 107 C18.34 107 17.68 107 17 107 C16.773125 107.804375 16.54625 108.60875 16.3125 109.4375 C15.00350262 112.99049288 13.38270832 116.00469625 11.5078125 119.27734375 C8.47750773 124.7491635 5.76802272 130.39216147 3 136 C2.34 136 1.68 136 1 136 C0.7525 136.825 0.505 137.65 0.25 138.5 C-1.18704811 142.52373471 -3.02354515 146.21979024 -5 150 C-5.66 150 -6.32 150 -7 150 C-7.2475 150.825 -7.495 151.65 -7.75 152.5 C-9.18704811 156.52373471 -11.02354515 160.21979024 -13 164 C-13.66 164 -14.32 164 -15 164 C-15.37125 165.2065625 -15.37125 165.2065625 -15.75 166.4375 C-19.72481887 177.76573377 -19.72481887 177.76573377 -22.4609375 180.4140625 C-24.56319409 182.58034721 -25.48703836 184.92968273 -26.6875 187.6875 C-27.12449219 188.68136719 -27.56148438 189.67523438 -28.01171875 190.69921875 C-28.33785156 191.45847656 -28.66398437 192.21773437 -29 193 C-29.66 193 -30.32 193 -31 193 C-31.2475 193.825 -31.495 194.65 -31.75 195.5 C-33.18704811 199.52373471 -35.02354515 203.21979024 -37 207 C-37.66 207 -38.32 207 -39 207 C-39.2475 207.825 -39.495 208.65 -39.75 209.5 C-41.18704811 213.52373471 -43.02354515 217.21979024 -45 221 C-45.66 221 -46.32 221 -47 221 C-47.66 223.31 -48.32 225.62 -49 228 C-49.99 228 -50.98 228 -52 228 C-61 211.63106796 -61 211.63106796 -61 209 C-61.66 209 -62.32 209 -63 209 C-64.00484204 207.04414675 -65.00373805 205.08523763 -66 203.125 C-66.556875 202.03445312 -67.11375 200.94390625 -67.6875 199.8203125 C-69 197 -69 197 -69 195 C-69.66 195 -70.32 195 -71 195 C-72.00460531 192.87717331 -73.00355602 190.75166979 -74 188.625 C-74.556875 187.44164062 -75.11375 186.25828125 -75.6875 185.0390625 C-77 182 -77 182 -77 180 C-77.66 180 -78.32 180 -79 180 C-80.00484204 178.04414675 -81.00373805 176.08523763 -82 174.125 C-82.556875 173.03445312 -83.11375 171.94390625 -83.6875 170.8203125 C-85 168 -85 168 -85 166 C-85.66 166 -86.32 166 -87 166 C-88.00460531 163.87717331 -89.00355602 161.75166979 -90 159.625 C-90.556875 158.44164062 -91.11375 157.25828125 -91.6875 156.0390625 C-93 153 -93 153 -93 151 C-93.66 151 -94.32 151 -95 151 C-96.00484204 149.04414675 -97.00373805 147.08523763 -98 145.125 C-98.556875 144.03445312 -99.11375 142.94390625 -99.6875 141.8203125 C-101 139 -101 139 -101 137 C-101.66 137 -102.32 137 -103 137 C-104.00460531 134.87717331 -105.00355602 132.75166979 -106 130.625 C-106.556875 129.44164062 -107.11375 128.25828125 -107.6875 127.0390625 C-109 124 -109 124 -109 122 C-109.66 122 -110.32 122 -111 122 C-112.00484204 120.04414675 -113.00373805 118.08523763 -114 116.125 C-114.556875 115.03445312 -115.11375 113.94390625 -115.6875 112.8203125 C-117 110 -117 110 -117 108 C-117.66 108 -118.32 108 -119 108 C-120.00460531 105.87717331 -121.00355602 103.75166979 -122 101.625 C-122.556875 100.44164063 -123.11375 99.25828125 -123.6875 98.0390625 C-125 95 -125 95 -125 93 C-125.66 93 -126.32 93 -127 93 C-127.80008365 91.02422092 -128.58959921 89.04416153 -129.375 87.0625 C-129.81585938 85.96035156 -130.25671875 84.85820313 -130.7109375 83.72265625 C-133.35337288 76.09162318 -134.38998813 68.94086345 -134.375 60.875 C-134.37338867 59.96210205 -134.37177734 59.0492041 -134.37011719 58.10864258 C-134.17300399 47.08866237 -131.78337031 36.50665119 -126 27 C-125.19175781 25.64068359 -125.19175781 25.64068359 -124.3671875 24.25390625 C-121.28850859 19.23605946 -118.27715962 15.07777323 -114 11 C-112.75863281 9.77990234 -112.75863281 9.77990234 -111.4921875 8.53515625 C-82.23740481 -19.10406382 -33.30888996 -21.80868287 0 0 Z M-67 7 C-67 32.41 -67 57.82 -67 84 C-77.89 84 -88.78 84 -100 84 C-96.94809833 87.81487709 -94.77632528 90.16404087 -91.0625 93.0625 C-86.70398796 96.55047035 -82.56975372 100.18052525 -78.5 104 C-73.7086867 108.48743945 -68.77742803 112.70830778 -63.65625 116.8203125 C-59.3010003 120.39417917 -55.15029143 124.19181502 -51 128 C-45.40190257 124.01673837 -40.35529202 119.6911165 -35.38964844 114.9597168 C-32.13463655 111.89684859 -28.74186037 109.43141982 -25 107 C-23.31066078 105.3563186 -21.64740076 103.6857124 -20 102 C-17.03317466 99.2956246 -14.01551294 96.64984443 -11 94 C-10.24460937 93.32839844 -9.48921875 92.65679687 -8.7109375 91.96484375 C-7.64746094 91.02318359 -7.64746094 91.02318359 -6.5625 90.0625 C-5.60537109 89.21365234 -5.60537109 89.21365234 -4.62890625 88.34765625 C-3 87 -3 87 -1 86 C-1 85.34 -1 84.68 -1 84 C-11.56 84 -22.12 84 -33 84 C-33 58.59 -33 33.18 -33 7 C-44.22 7 -55.44 7 -67 7 Z " fill="#bf612a" transform="translate(175,18)"/>
</svg>
