<?xml version="1.0" encoding="UTF-8"?>
<svg version="1.1" xmlns="http://www.w3.org/2000/svg" width="1200" height="1387">
<path d="M0 0 C1.32220523 0.17915724 2.64447297 0.35785364 3.96679688 0.53613281 C54.8768806 7.48392264 105.04906509 20.99606655 152 42 C153.4864502 42.66080566 153.4864502 42.66080566 155.00292969 43.33496094 C162.04049 46.47589299 169.03453555 49.7024165 176 53 C177.29067383 53.61029053 177.29067383 53.61029053 178.60742188 54.23291016 C192.8672522 61.0316544 206.45759262 68.87969058 220 77 C220.8652832 77.51804199 221.73056641 78.03608398 222.62207031 78.56982422 C251.48124462 95.8978318 278.81806999 115.67472394 304.36132812 137.59960938 C306.00932146 139.00796602 307.66739677 140.40356858 309.328125 141.796875 C323.24174 153.51465693 336.24934989 166.16394433 349.125 179 C349.61636444 179.48868561 350.10772888 179.97737122 350.61398315 180.48086548 C355.74786586 185.59344353 360.77305094 190.74128078 365.48876953 196.24365234 C367.71599781 198.83213058 370.04752039 201.3137794 372.375 203.8125 C377.49246393 209.35333857 382.27243478 215.12271837 387 221 C387.65871094 221.79019531 388.31742188 222.58039063 388.99609375 223.39453125 C407.77475989 245.9360303 424.66884604 270.00165318 440 295 C440.38140137 295.61649414 440.76280273 296.23298828 441.15576172 296.86816406 C466.14907216 337.31860021 486.44932169 380.09464157 502 425 C502.63566895 426.8250708 502.63566895 426.8250708 503.28417969 428.68701172 C516.26669173 466.33230511 524.82666591 505.08224503 530.25 544.5 C530.40130371 545.5945752 530.55260742 546.68915039 530.70849609 547.81689453 C531.19027209 551.53990699 531.61457011 555.26602264 532 559 C532.1308046 560.26603561 532.1308046 560.26603561 532.26425171 561.55764771 C533.99710951 578.96950506 534.36464786 596.33420778 534.31805801 613.81801224 C534.31241121 615.97135747 534.30959478 618.12469481 534.30697632 620.27804565 C534.26979853 641.31558059 533.85451826 662.12442059 531 683 C530.82839355 684.29808594 530.65678711 685.59617187 530.47998047 686.93359375 C520.94907 757.97793523 499.53470401 828.37869096 478.0234375 896.5546875 C477.7677449 897.36843338 477.51205231 898.18217926 477.24861145 899.02058411 C476.03593062 902.85124047 474.78158171 906.65695558 473.42285156 910.43847656 C473.17854401 911.12869904 472.93423645 911.81892151 472.68252563 912.53005981 C472.02581406 914.36983446 471.35079288 916.20304517 470.67431641 918.03564453 C469.74888727 920.91583644 469.74888727 920.91583644 470.7746582 923.31201172 C472.18444269 925.25408183 473.66636269 926.52905712 475.5625 928 C494.42068798 944.13005952 503.00975288 970.96723101 505 995 C507.50910998 1040.08397911 494.4952515 1087.14754471 464.86279297 1121.91894531 C455.60410843 1132.26246131 445.52623589 1141.95881611 435 1151 C433.84346623 1152.02164507 432.68847967 1153.04504468 431.53515625 1154.0703125 C422.99611843 1161.60547602 414.17539196 1168.65922242 405.04931641 1175.46972656 C403.12456209 1176.90698652 401.20831525 1178.3549302 399.29296875 1179.8046875 C337.79689389 1226.00584095 337.79689389 1226.00584095 307.37280273 1221.93237305 C269.91843725 1216.9461533 228.80007149 1218.95848091 197.23046875 1242.0234375 C177.30352411 1257.56154755 168.49554989 1279.81836201 165.43359375 1304.2734375 C164.8898025 1309.41359847 164.84961607 1314.52277654 164.875 1319.6875 C164.87790039 1321.12246826 164.87790039 1321.12246826 164.88085938 1322.58642578 C164.92633268 1330.09330989 165.28560631 1337.52438036 166 1345 C160.01986835 1348.15037238 154.01532358 1350.56358973 147.625 1352.75 C146.72394531 1353.06582031 145.82289063 1353.38164063 144.89453125 1353.70703125 C138.27370806 1356 138.27370806 1356 136 1356 C136 1341.48 136 1326.96 136 1312 C130.72 1312 125.44 1312 120 1312 C120 1328.17 120 1344.34 120 1361 C105.34528571 1365.50914286 105.34528571 1365.50914286 99.7578125 1366.78125 C97.89733276 1367.20555298 97.89733276 1367.20555298 95.99926758 1367.63842773 C94.72075928 1367.92274658 93.44225098 1368.20706543 92.125 1368.5 C91.45922943 1368.64929962 90.79345886 1368.79859924 90.10751343 1368.9524231 C58.61906943 1376 58.61906943 1376 49 1376 C49 1354.88 49 1333.76 49 1312 C43.72 1312 38.44 1312 33 1312 C33.00523682 1313.99409912 33.01047363 1315.98819824 33.01586914 1318.04272461 C33.03196623 1324.61654057 33.04347203 1331.19035188 33.05181217 1337.76418209 C33.05704036 1341.751572 33.06413684 1345.73894067 33.07543945 1349.72631836 C33.08627061 1353.57125114 33.09227732 1357.41616345 33.09487724 1361.26111031 C33.09673108 1362.73118983 33.10035091 1364.20126818 33.10573006 1365.67133904 C33.11294355 1367.72354467 33.11399081 1369.77566467 33.11352539 1371.82788086 C33.115746 1372.99814316 33.11796661 1374.16840546 33.12025452 1375.37413025 C33 1378 33 1378 32 1379 C29.77814823 1379.29009566 27.54802686 1379.51713099 25.31640625 1379.71875 C24.29283272 1379.81261238 24.29283272 1379.81261238 23.24858093 1379.90837097 C21.02032268 1380.11083094 18.79151009 1380.3060037 16.5625 1380.5 C15.80569946 1380.56692047 15.04889893 1380.63384094 14.26916504 1380.70278931 C-3.9223097 1382.30935627 -21.65485161 1383 -40 1383 C-40 1359.57 -40 1336.14 -40 1312 C-45.28 1312 -50.56 1312 -56 1312 C-56 1335.76 -56 1359.52 -56 1384 C-116 1382.8 -116 1382.8 -130 1380 C-130 1357.56 -130 1335.12 -130 1312 C-135.28 1312 -140.56 1312 -146 1312 C-146 1333.78 -146 1355.56 -146 1378 C-151.66604347 1378 -156.23261009 1377.79999463 -161.70703125 1376.8984375 C-162.78014557 1376.72294121 -162.78014557 1376.72294121 -163.87493896 1376.54389954 C-166.18884425 1376.16209361 -168.50071622 1375.76943394 -170.8125 1375.375 C-171.99729446 1375.17591537 -171.99729446 1375.17591537 -173.20602417 1374.97280884 C-207.32461945 1369.22512685 -207.32461945 1369.22512685 -220 1365 C-220 1347.51 -220 1330.02 -220 1312 C-225.28 1312 -230.56 1312 -236 1312 C-236 1327.84 -236 1343.68 -236 1360 C-247.25702855 1357.74859429 -247.25702855 1357.74859429 -252.41796875 1355.94140625 C-253.52720703 1355.55533203 -254.63644531 1355.16925781 -255.77929688 1354.77148438 C-257.46635742 1354.17303711 -257.46635742 1354.17303711 -259.1875 1353.5625 C-260.32380859 1353.16740234 -261.46011719 1352.77230469 -262.63085938 1352.36523438 C-268.17729275 1350.42155714 -273.63992643 1348.41242095 -279 1346 C-279.02187378 1344.90667358 -279.02187378 1344.90667358 -279.04418945 1343.79125977 C-279.72265722 1313.35131201 -283.08177819 1285.44937439 -305.34375 1262.59375 C-327.88337134 1241.22501808 -360.12905502 1234.82257305 -390.25 1234.8125 C-391.28648682 1234.8031543 -392.32297363 1234.79380859 -393.39086914 1234.78417969 C-398.62351445 1234.78576546 -403.62777135 1235.00654041 -408.79296875 1235.87109375 C-425.7427074 1238.62725592 -436.45424972 1233.54769184 -451 1225 C-452.01191406 1224.41992188 -453.02382813 1223.83984375 -454.06640625 1223.2421875 C-477.13922862 1209.96415037 -498.63756376 1194.11963793 -519 1177 C-519.52094238 1176.56397461 -520.04188477 1176.12794922 -520.57861328 1175.67871094 C-529.40853507 1168.27197386 -537.94414489 1160.58445714 -546.28515625 1152.63134766 C-547.36379342 1151.60522955 -548.44655596 1150.58341328 -549.53515625 1149.56787109 C-580.35358995 1120.81729551 -598.34202633 1076.92817942 -600.12426758 1035.08227539 C-600.86404872 1006.20332686 -597.54868269 975.03228689 -577.17578125 952.72265625 C-575.79864711 949.53374431 -576.06376437 949.08014488 -577.20214844 945.94824219 C-577.48830521 945.14649063 -577.77446198 944.34473907 -578.06929016 943.51869202 C-578.37642441 942.68752365 -578.68355865 941.85635529 -579 941 C-579.28058762 940.21753403 -579.56117523 939.43506805 -579.8502655 938.62889099 C-580.75307739 936.11719144 -581.67034006 933.6111032 -582.58984375 931.10546875 C-583.2929032 929.18021902 -583.99560672 927.25483929 -584.69799805 925.3293457 C-585.06323578 924.32843903 -585.42847351 923.32753235 -585.80477905 922.29629517 C-593.28983772 901.75327064 -600.50283392 881.14922475 -607.23815918 860.34869385 C-608.03080129 857.90504209 -608.82800206 855.46291142 -609.62597656 853.02099609 C-622.63300744 813.16854716 -634.15065109 772.90994139 -645.0625 732.4375 C-645.37033417 731.30155396 -645.67816833 730.16560791 -645.99533081 728.99523926 C-653.31820918 701.91195082 -659.22128934 674.80002253 -663 647 C-663.16661133 645.83758789 -663.33322266 644.67517578 -663.50488281 643.47753906 C-669.01088343 603.70437935 -668.58186304 559.72132851 -663 520 C-662.74508694 518.02837594 -662.49018979 516.05674975 -662.23596191 514.08503723 C-653.97357671 450.82202213 -633.40862067 390.95999822 -605 334 C-604.52062988 333.03723145 -604.04125977 332.07446289 -603.54736328 331.08251953 C-585.8827969 295.86152419 -563.70757452 262.6637782 -539 232 C-538.25363281 231.07058594 -537.50726562 230.14117187 -536.73828125 229.18359375 C-528.05171761 218.46964542 -519.06622538 208.01938349 -509.6875 197.90625 C-507.94537167 196.02232053 -506.21535838 194.12708619 -504.5 192.21875 C-498.77598083 185.86648482 -492.84881027 179.74415115 -486.8125 173.6875 C-486.06411865 172.93452637 -485.3157373 172.18155273 -484.54467773 171.40576172 C-480.4334312 167.30585593 -476.23231559 163.37728752 -471.83325195 159.58813477 C-469.2250219 157.32864129 -466.71261528 154.97706542 -464.1875 152.625 C-459.61702095 148.40725913 -454.9306113 144.3904736 -450.08203125 140.4921875 C-447.76835882 138.62130916 -445.47813421 136.73268121 -443.19921875 134.8203125 C-418.82571796 114.41767804 -392.47052979 96.25974391 -365.04345703 80.19970703 C-363.64306037 79.37753867 -362.24573862 78.55011676 -360.85107422 77.71826172 C-298.94477406 40.83649058 -229.93366628 16.19187389 -159 4 C-157.30883057 3.70851074 -157.30883057 3.70851074 -155.58349609 3.41113281 C-147.74355506 2.09045481 -139.88747851 0.99410822 -132 0 C-130.86739746 -0.15098145 -129.73479492 -0.30196289 -128.56787109 -0.45751953 C-87.03662127 -5.79059455 -41.45713368 -5.84014662 0 0 Z M97 642 C95.41251953 642.43650879 95.41251953 642.43650879 93.79296875 642.88183594 C67.790767 650.16892984 34.86263941 659.90088844 19.13671875 683.8359375 C2.57481324 714.49395614 8.98917799 755.89079955 18.3828125 787.74609375 C18.91711585 789.49885366 19.45608512 791.25019888 20 793 C20.25620117 793.82773926 20.51240234 794.65547852 20.77636719 795.50830078 C31.40240152 829.15296531 48.87013819 860.21710054 73 886 C73.45793945 886.49741699 73.91587891 886.99483398 74.38769531 887.50732422 C84.38341414 898.15557174 97.07041806 905.74531658 109.15887451 913.77165222 C118.772821 920.15980617 128.03082311 927.0179583 137.3125 933.875 C146.11879133 940.38052483 154.99122191 946.77744194 164 953 C164.72010254 953.49741699 165.44020508 953.99483398 166.18212891 954.50732422 C188.36632932 969.74886381 210.94253604 982.77748109 237 990 C237.92039062 990.25652344 238.84078125 990.51304687 239.7890625 990.77734375 C265.4688075 996.82223218 290.91774716 990.48444793 313 977 C345.59655698 955.76808479 361.56758737 919.55251374 369.68359375 882.70703125 C373.50793667 864.05258181 375.61598818 845.03286167 376 826 C376.03996094 824.7728125 376.07992188 823.545625 376.12109375 822.28125 C377.10138074 768.30780153 367.7284004 699.4590728 331 657 C330.25943359 656.10087891 330.25943359 656.10087891 329.50390625 655.18359375 C309.50337746 632.88873996 269.96043944 628.88794252 242 627 C238.27684746 626.85711242 234.55770073 626.81415532 230.83203125 626.796875 C229.29382721 626.78628555 229.29382721 626.78628555 227.72454834 626.77548218 C183.37525993 626.5400133 139.91005255 630.1843906 97 642 Z M-431 655 C-432.00804687 655.48339844 -433.01609375 655.96679688 -434.0546875 656.46484375 C-456.26333002 667.82082102 -467.58219781 689.82858981 -475.34375 712.67578125 C-481.43451574 731.69485297 -485.41756461 751.21928566 -488 771 C-488.11714355 771.84997559 -488.23428711 772.69995117 -488.35498047 773.57568359 C-496.36947559 833.74989438 -489.25344589 909.40874702 -452.1472168 959.41040039 C-450.15826488 961.99325159 -448.08947808 964.49748555 -446 967 C-445.36835938 967.79535156 -444.73671875 968.59070313 -444.0859375 969.41015625 C-428.06683539 988.73532837 -402.84189658 1001.44056777 -378 1004 C-332.47233896 1007.55999397 -292.96521612 978.16000621 -260.0625 950.1875 C-259.02032109 949.29486855 -257.97863916 948.40165647 -256.9375 947.5078125 C-254.17702183 945.15112768 -251.381397 942.84875658 -248.5625 940.5625 C-244.97840005 937.64847091 -241.45213693 934.6802665 -237.95947266 931.65820312 C-232.78616666 927.18198906 -227.57027807 922.7855082 -222.1875 918.5625 C-221.61652588 918.11430908 -221.04555176 917.66611816 -220.45727539 917.2043457 C-217.30662579 914.74890373 -214.12353983 912.34653518 -210.90234375 909.984375 C-188.43511787 893.4075684 -172.06960406 873.58508614 -159 849 C-158.54238281 848.14083984 -158.08476562 847.28167969 -157.61328125 846.39648438 C-145.7580004 823.76518494 -137.59765477 799.12051955 -133 774 C-132.83918945 773.15727539 -132.67837891 772.31455078 -132.51269531 771.44628906 C-127.16240691 742.48854255 -125.91408169 705.63725571 -142.53515625 680.0078125 C-144.47110409 677.35427333 -146.53130915 675.16763099 -149 673 C-149.45375 672.55527344 -149.9075 672.11054687 -150.375 671.65234375 C-175.96683495 647.65999848 -219.86109729 642.39951775 -253 638 C-254.22557617 637.83483887 -255.45115234 637.66967773 -256.71386719 637.49951172 C-312.42681959 630.36004379 -379.4500098 629.97168999 -431 655 Z M-77.60597229 902.82217407 C-81.32006629 912.07570078 -84.44574759 921.55331188 -87.625 931 C-87.974487 932.03421082 -88.323974 933.06842163 -88.68405151 934.13397217 C-129.71709976 1032.97068693 -129.71709976 1032.97068693 -135 1134 C-130.91257527 1138.46765028 -127.93636494 1139.54811821 -122 1140 C-101.16561918 1137.26838118 -80.87420327 1124.85918024 -64.20556641 1112.68994141 C-60.43993952 1109.94198785 -60.43993952 1109.94198785 -58.08374023 1110.25268555 C-55.81558746 1111.06613788 -54.03204363 1112.08771106 -52.015625 1113.40625 C-51.25354736 1113.89851074 -50.49146973 1114.39077148 -49.70629883 1114.89794922 C-48.89572021 1115.42662598 -48.0851416 1115.95530273 -47.25 1116.5 C-20.94972117 1134.34533339 -20.94972117 1134.34533339 9.375 1139.6875 C13.44461901 1138.49055323 14.67133206 1137.47128635 17.1875 1133.86328125 C19.23838029 1130.01688898 19.6152722 1126.43637719 19.5 1122.125 C19.48501465 1121.34511719 19.4700293 1120.56523438 19.45458984 1119.76171875 C17.16263594 1054.10172098 -11.32950245 983.93445678 -32.625 922.5625 C-32.90714355 921.74296844 -33.18928711 920.92343689 -33.47998047 920.07907104 C-40.07044615 899.6308211 -40.07044615 899.6308211 -54 884 C-56.47807952 882.93985903 -57.93204579 882.69880039 -60.60546875 883.0078125 C-69.38311201 886.64487839 -74.11910435 894.46517568 -77.60597229 902.82217407 Z " fill="#1e787d" transform="translate(666,3)"/>
</svg>
