<?xml version="1.0" encoding="UTF-8"?>
<svg version="1.1" xmlns="http://www.w3.org/2000/svg" width="250" height="250">
<path d="M0 0 C1.64838867 -0.02416992 1.64838867 -0.02416992 3.33007812 -0.04882812 C14.05502939 -0.05514807 23.73815033 2.00157744 33.25 7 C33.92482422 7.34740234 34.59964844 7.69480469 35.29492188 8.05273438 C54.19808808 18.03490112 67.23722038 33.11580511 74.1875 53.3125 C74.50589844 54.19550781 74.82429687 55.07851563 75.15234375 55.98828125 C79.40452079 69.84214838 78.50434534 85.77451177 73.84570312 99.37646484 C73.15332424 101.4130244 72.52162924 103.46318338 71.890625 105.51953125 C60.54540666 141.18905076 41.38673888 175.36914327 22.72265625 207.64941406 C21.13566951 210.40241205 19.56582715 213.1646052 18 215.9296875 C13.59445312 223.70366057 9.17316536 231.4703271 4.5625 239.125 C3.95148438 240.14207031 3.34046875 241.15914062 2.7109375 242.20703125 C2.20820312 242.90183594 1.70546875 243.59664062 1.1875 244.3125 C0.5275 244.3125 -0.1325 244.3125 -0.8125 244.3125 C-2.28613281 242.23071289 -2.28613281 242.23071289 -4.015625 239.28515625 C-4.65878662 238.19630127 -5.30194824 237.10744629 -5.96459961 235.9855957 C-6.66434642 234.78232345 -7.36363407 233.57878408 -8.0625 232.375 C-8.78820861 231.13549436 -9.51420512 229.89615722 -10.24047852 228.65698242 C-65.04306514 134.91302755 -65.04306514 134.91302755 -75.8125 91.3125 C-76.00972656 90.54421875 -76.20695312 89.7759375 -76.41015625 88.984375 C-79.52969927 68.2681864 -74.56759113 48.50848024 -62.76171875 31.328125 C-60.86313058 28.89498288 -58.89197551 26.59184329 -56.8125 24.3125 C-56.29558594 23.7040625 -55.77867188 23.095625 -55.24609375 22.46875 C-41.28516512 7.07323973 -20.20965776 -0.05864671 0 0 Z M-44.8125 38.3125 C-55.86860478 51.44162442 -60.25364874 67.35676237 -58.8125 84.3125 C-55.76232584 100.68451589 -48.89769667 114.45775053 -35.4375 124.6875 C-21.74320249 134.04718794 -6.03757537 137.98836692 10.4375 135.6875 C20.36690753 133.66658938 29.12627241 129.37791109 37.1875 123.3125 C37.80238281 122.86261719 38.41726562 122.41273437 39.05078125 121.94921875 C44.21483822 117.88438455 47.70968287 112.84222923 51.1875 107.3125 C51.579375 106.69890625 51.97125 106.0853125 52.375 105.453125 C59.95744573 92.06536926 61.10045952 75.25578988 57.27734375 60.6328125 C52.0751664 44.78388509 42.93084865 33.21486691 28.46875 24.93359375 C2.8569028 12.28012162 -25.31688549 17.73379579 -44.8125 38.3125 Z " fill="#168118" transform="translate(124.8125,2.6875)"/>
<path d="M0 0 C8.58 0 17.16 0 26 0 C23.75 11.25 23.75 11.25 21 17 C21.99 17.495 22.98 17.99 24 18.5 C35.20925839 24.99910537 41.20886044 36.15575001 45.23828125 48.125 C47.91717122 58.23609241 47.59868125 67.50167669 43 77 C37.14008144 85.42219668 29.86957624 91.19572926 20 94 C9.30691797 95.22983389 -0.03490132 93.7041108 -8.60546875 86.9453125 C-15.29053766 80.64193594 -19.96152259 73.29909316 -21 64 C-21.35255912 49.44714297 -16.37698751 36.99885215 -7 26 C-5.68394313 24.64961121 -4.35578778 23.3104942 -3 22 C-5.31 21.34 -7.62 20.68 -10 20 C-9.67 19.01 -9.34 18.02 -9 17 C-5.7 17 -2.4 17 1 17 C-3.27828642 13.74850232 -6.73829306 11.41167747 -12 10 C-11.67 9.34 -11.34 8.68 -11 8 C-3.5 8.625 -3.5 8.625 1 12 C0.67 8.04 0.34 4.08 0 0 Z M11 32 C11 33.65 11 35.3 11 37 C10.2575 37.0825 9.515 37.165 8.75 37.25 C5.28984065 38.19367982 4.04625315 39.044301 2 42 C1.48302195 45.25696173 1.22321631 46.93568008 2 50 C6.00551321 54.76331301 10.88476859 56.28594269 16.70703125 58.203125 C19 59 19 59 20 60 C20.1875 63.4375 20.1875 63.4375 20 67 C18 69 18 69 15.94140625 69.265625 C15.15636719 69.26046875 14.37132812 69.2553125 13.5625 69.25 C12.38880859 69.25773437 12.38880859 69.25773437 11.19140625 69.265625 C9 69 9 69 6 67 C5.3125 64.875 5.3125 64.875 5 63 C3.35 63 1.7 63 0 63 C1.23858396 67.95433585 2.72758333 70.18645731 7 73 C7.99 73.33 8.98 73.66 10 74 C10.33 75.65 10.66 77.3 11 79 C12.32 79 13.64 79 15 79 C15 77.35 15 75.7 15 74 C15.9075 73.7525 16.815 73.505 17.75 73.25 C21.24329704 71.90642422 22.80448057 71.00867477 25 68 C26.00888229 64.30076493 26.31686183 61.97321847 25.125 58.3125 C21.99798568 54.90957266 18.24852879 53.65743287 14 52 C8.27582477 49.64899946 8.27582477 49.64899946 6.9375 46.5 C7 44 7 44 8 42.1875 C11.14183812 40.32203362 13.43742763 40.49106109 17 41 C18.625 43.5 18.625 43.5 20 46 C22.62694422 46.41780879 22.62694422 46.41780879 25 46 C24.70540991 42.46491897 24.25118587 41.23796556 21.625 38.75 C19.06029774 36.87392291 19.06029774 36.87392291 16 36 C16 34.68 16 33.36 16 32 C14.35 32 12.7 32 11 32 Z " fill="#168118" transform="translate(112,32)"/>
</svg>
