<?xml version="1.0" encoding="UTF-8"?>
<svg version="1.1" xmlns="http://www.w3.org/2000/svg" width="250" height="250">
<path d="M0 0 C0.77730469 -0.02698975 1.55460938 -0.05397949 2.35546875 -0.08178711 C6.61038431 -0.05280142 8.24369579 0.21661904 11.71484375 2.921875 C13.6875 5.5625 13.6875 5.5625 13.9375 8.375 C11.60170201 14.33128486 6.82490486 18.47185434 2.3125 22.875 C-0.94282343 26.20783113 -1.24658017 27.75827809 -1.625 32.375 C-1.56872352 36.7404473 -0.1766392 39.22100427 2.6875 42.5625 C5.68129705 44.91476911 8.9268986 44.99473099 12.68359375 44.86328125 C19.01284943 43.91327601 23.36585367 37.99343173 27.5390625 33.5859375 C29.56728707 31.67571873 31.09223765 30.52977701 33.6875 29.5625 C36.77207987 29.75135183 38.8785555 29.93024757 41.34399414 31.85717773 C42.98923033 33.94548861 43.08525035 35.02522165 43.12109375 37.66015625 C43.13269531 38.45679688 43.14429688 39.2534375 43.15625 40.07421875 C43.1459375 40.91597656 43.135625 41.75773437 43.125 42.625 C43.11597656 43.48609375 43.10695312 44.3471875 43.09765625 45.234375 C42.92067644 51.73346695 42.12627003 56.93807105 38.6875 62.5625 C37.84832031 63.94501953 37.84832031 63.94501953 36.9921875 65.35546875 C30.76720337 74.69294495 23.02898074 80.53354331 12.3195343 83.92915344 C9.14893974 84.4820351 7.73863022 84.52475725 4.73234558 83.96183777 C-1.69906485 82.89796575 -7.33516107 82.79556834 -13.08709335 86.20911026 C-20.19117452 91.59616583 -26.41462784 97.96766017 -32.63382316 104.33163857 C-35.38515 107.13155122 -38.18310435 109.88428073 -40.97358704 112.64506531 C-45.64963971 117.28668569 -50.2845148 121.96660947 -54.89770508 126.6706543 C-60.2091749 132.08552069 -65.58566411 137.42850503 -71.00104588 142.7392934 C-75.67382965 147.32545396 -80.30806572 151.94811308 -84.9129079 156.60249013 C-87.65242271 159.37141538 -90.40265013 162.12641719 -93.18845177 164.84884071 C-106.80144912 177.16654632 -106.80144912 177.16654632 -112.68448353 193.66375256 C-112.56440024 196.0245248 -112.30408817 198.28244238 -111.91926575 200.6134491 C-110.64459327 208.90947851 -114.43390959 215.63784754 -118.9375 222.375 C-123.04025613 227.64780139 -127.51742053 231.28159347 -133.3125 234.5625 C-134.04726562 234.995625 -134.78203125 235.42875 -135.5390625 235.875 C-141.13835876 238.64578578 -146.54663746 238.93700111 -152.6875 239 C-153.47318359 239.01023193 -154.25886719 239.02046387 -155.06835938 239.03100586 C-158.49498688 238.97824878 -160.74479073 238.87232241 -163.7890625 237.2109375 C-166.10526945 234.7046828 -166.3125 232.94627258 -166.3125 229.5625 C-163.64751148 223.97871454 -158.88847839 220.05585568 -154.45703125 215.83203125 C-151.21514747 212.40118521 -150.96749369 209.27156059 -151.02734375 204.62890625 C-151.59329132 200.52772454 -153.8784926 197.6892201 -157.0625 195.1875 C-161.9263898 193.8364195 -165.76891906 193.8071306 -170.25 196 C-173.79817881 198.96888431 -176.98471343 202.18122366 -180.1640625 205.5390625 C-182.19228707 207.44928127 -183.71723765 208.59522299 -186.3125 209.5625 C-189.39707987 209.37364817 -191.5035555 209.19475243 -193.96899414 207.26782227 C-195.61423033 205.17951139 -195.71025035 204.09977835 -195.74609375 201.46484375 C-195.75769531 200.66820312 -195.76929688 199.8715625 -195.78125 199.05078125 C-195.76578125 197.78814453 -195.76578125 197.78814453 -195.75 196.5 C-195.74097656 195.63890625 -195.73195312 194.7778125 -195.72265625 193.890625 C-195.54567644 187.39153305 -194.75127003 182.18692895 -191.3125 176.5625 C-190.75304687 175.64082031 -190.19359375 174.71914062 -189.6171875 173.76953125 C-183.39220337 164.43205505 -175.65398074 158.59145669 -164.9445343 155.19584656 C-161.77393974 154.6429649 -160.36363022 154.60024275 -157.35734558 155.16316223 C-150.92593515 156.22703425 -145.28983893 156.32943166 -139.53790665 152.91588974 C-132.43382548 147.52883417 -126.21037216 141.15733983 -119.99117684 134.79336143 C-117.23985 131.99344878 -114.44189565 129.24071927 -111.65141296 126.47993469 C-106.97536029 121.83831431 -102.3404852 117.15839053 -97.72729492 112.4543457 C-92.4158251 107.03947931 -87.03933589 101.69649497 -81.62395412 96.3857066 C-76.95117035 91.79954604 -72.31693428 87.17688692 -67.7120921 82.52250987 C-64.97257729 79.75358462 -62.22234987 76.99858281 -59.43654823 74.27615929 C-45.82355088 61.95845368 -45.82355088 61.95845368 -39.94051647 45.46124744 C-40.06059976 43.1004752 -40.32091183 40.84255762 -40.70573425 38.5115509 C-41.98040673 30.21552149 -38.19109041 23.48715246 -33.6875 16.75 C-29.58474387 11.47719861 -25.10757947 7.84340653 -19.3125 4.5625 C-18.57773438 4.129375 -17.84296875 3.69625 -17.0859375 3.25 C-11.53980748 0.50552329 -6.08868441 0.1311165 0 0 Z " fill="#505052" transform="translate(201.3125,6.4375)"/>
<path d="M0 0 C0.87366211 0.00499512 1.74732422 0.00999023 2.64746094 0.01513672 C14.38933731 0.33031111 23.39263487 5.09249061 31.83203125 13.05078125 C37.02095504 18.55498142 40.78658425 26.04793074 42.1875 33.5 C41.94128906 34.79421875 41.69507812 36.0884375 41.44140625 37.421875 C40.43030937 43.52369731 39.70333279 49.66030462 43.23199463 55.11444092 C49.48127922 63.22842415 58.94208972 73.87729486 68.1875 78.5 C68.1875 81.5 68.1875 81.5 66.84179688 82.92211914 C66.20306641 83.43379639 65.56433594 83.94547363 64.90625 84.47265625 C61.30232828 87.49260917 57.91147286 90.66739663 54.59375 93.99609375 C54.11252686 94.47833405 53.63130371 94.96057434 53.13549805 95.45742798 C51.65084479 96.94882462 50.16911175 98.44308241 48.6875 99.9375 C47.66429861 100.9657298 46.64086267 101.99372626 45.6171875 103.02148438 C43.13792001 105.51164338 40.66182462 108.00492833 38.1875 110.5 C33.97977011 107.10448606 30.30279075 103.59885435 26.7265625 99.5390625 C18.21883052 88.98530224 18.21883052 88.98530224 6.55859375 83.3359375 C3.69337866 83.30390961 0.93176329 83.64103271 -1.90234375 84.0390625 C-10.48115801 85.05035129 -18.90218387 81.27012135 -25.75390625 76.25390625 C-33.79218105 69.40535713 -41.00659183 60.27317749 -42.00537109 49.40039062 C-42.50292307 35.54130647 -41.87634267 25.15154579 -32.5625 14.125 C-23.26640128 4.53647434 -13.37594743 -0.10113648 0 0 Z M-6.5 22.125 C-7.15033203 22.27839844 -7.80066406 22.43179687 -8.47070312 22.58984375 C-13.12241525 23.83219704 -15.32691507 25.4033878 -17.8125 29.5 C-19.17843314 32.81070155 -19.17843314 32.81070155 -20.125 36.375 C-20.47175781 37.54804687 -20.81851562 38.72109375 -21.17578125 39.9296875 C-21.9918613 44.50574374 -22.31472125 48.24651258 -19.63354492 52.26855469 C-18.09129066 54.09983863 -16.46363822 55.76607907 -14.75 57.4375 C-13.92725586 58.32018555 -13.92725586 58.32018555 -13.08789062 59.22070312 C-9.94266166 62.35864303 -8.43033215 63.42554015 -3.890625 63.97265625 C-2.52713784 63.85592664 -1.16664751 63.69750336 0.1875 63.5 C0.86482178 63.42257568 1.54214355 63.34515137 2.23999023 63.26538086 C7.13504686 62.55810368 12.12991024 61.43369524 16.1875 58.5 C19.52756768 53.8803571 20.55148451 48.06397731 21.1875 42.5 C21.28619385 41.82332275 21.3848877 41.14664551 21.48657227 40.44946289 C21.73549196 37.54189884 21.60779675 35.19209603 20.07568359 32.66918945 C18.52328237 30.83135659 16.88443949 29.20245948 15.125 27.5625 C14.56361328 26.98693359 14.00222656 26.41136719 13.42382812 25.81835938 C7.21769539 19.79663745 1.71164796 19.94961904 -6.5 22.125 Z " fill="#505052" transform="translate(47.8125,6.5)"/>
<path d="M0 0 C4.21105415 3.38458558 7.83298305 6.85948717 11.35546875 10.9609375 C20.09632235 21.80556611 20.09632235 21.80556611 32.296875 27.12890625 C36.49340248 27.14275226 40.62132091 26.6136402 44.78320312 26.11621094 C52.85199438 25.69322144 61.05354689 30.94802966 67.00390625 35.9921875 C70.62396796 39.63350202 73.40440845 43.58211491 76 48 C76.43570313 48.71285156 76.87140625 49.42570312 77.3203125 50.16015625 C81.85129341 59.14290512 81.40352839 71.54219243 79.3046875 81.19921875 C78.39037951 83.6463372 77.34403178 85.76272971 76 88 C75.34644531 89.16015625 75.34644531 89.16015625 74.6796875 90.34375 C69.03572091 99.59615424 60.64818817 106.49622095 50.12792969 109.54199219 C37.2860872 112.30602345 24.56560693 110.32310589 13.5234375 103.4609375 C5.4119798 97.73679845 -0.08646989 89.61529549 -3.44921875 80.33203125 C-3.95067509 77.29839824 -3.88961998 75.64733446 -3.39453125 72.69921875 C-2.33983889 65.45403736 -1.87720015 59.98145036 -6.30566406 53.76171875 C-12.64033986 46.29549078 -21.15861383 36.42069309 -30 32 C-30 29 -30 29 -28.65429688 27.57788086 C-28.01556641 27.06620361 -27.37683594 26.55452637 -26.71875 26.02734375 C-23.11482828 23.00739083 -19.72397286 19.83260337 -16.40625 16.50390625 C-15.92502686 16.02166595 -15.44380371 15.53942566 -14.94799805 15.04257202 C-13.46334479 13.55117538 -11.98161175 12.05691759 -10.5 10.5625 C-9.47679861 9.5342702 -8.45336267 8.50627374 -7.4296875 7.47851562 C-4.95042001 4.98835662 -2.47432462 2.49507167 0 0 Z M32.875 49.1875 C32.06417969 49.39697266 31.25335938 49.60644531 30.41796875 49.82226562 C25.89166737 51.08113558 25.89166737 51.08113558 22.0859375 53.71484375 C20.59843178 56.84502664 19.61833405 60.03322958 18.75 63.375 C18.564375 64.02210938 18.37875 64.66921875 18.1875 65.3359375 C17.05505803 69.59117399 16.58373083 72.80673246 18 77 C19.83231498 79.52284885 21.9497782 81.64879326 24.1875 83.8125 C24.75275391 84.39708984 25.31800781 84.98167969 25.90039062 85.58398438 C28.48389793 88.13789824 30.42778598 89.79763163 33.8828125 91.01953125 C38.07720031 90.99325062 41.68799747 90.075886 45.6875 88.875 C46.82541992 88.57335937 46.82541992 88.57335937 47.98632812 88.265625 C51.55833041 87.2189306 53.52077474 86.58876246 55.9140625 83.6484375 C56.98915535 81.02644845 57.93255752 78.4821728 58.6875 75.75 C59.06455078 74.44289063 59.06455078 74.44289063 59.44921875 73.109375 C60.88192207 65.89335765 60.88192207 65.89335765 58.85668945 59.07714844 C57.2724108 57.24349493 55.60974498 55.62469395 53.8125 54 C53.23435547 53.42894531 52.65621094 52.85789062 52.06054688 52.26953125 C45.56571949 46.09027175 41.11612609 46.83950661 32.875 49.1875 Z " fill="#505052" transform="translate(164,135)"/>
</svg>
