<?xml version="1.0" encoding="UTF-8"?>
<svg version="1.1" xmlns="http://www.w3.org/2000/svg" width="250" height="250">
<path d="M0 0 C2.0558848 0.00314874 4.11030848 -0.02035102 6.16601562 -0.0456543 C19.79289036 -0.11132034 32.08299351 1.99734829 44.32226562 8.31567383 C45.32773437 8.77586914 45.32773437 8.77586914 46.35351562 9.24536133 C52.72213391 12.19476242 58.76806315 16.03893792 64.32226562 20.31567383 C64.32226562 20.97567383 64.32226562 21.63567383 64.32226562 22.31567383 C65.02351562 22.50129883 65.72476563 22.68692383 66.44726562 22.87817383 C69.85638853 24.58273528 71.48000128 26.58454552 73.84179688 29.51098633 C75.4489316 31.53032397 75.4489316 31.53032397 78.00976562 34.00317383 C83.32226562 39.31567383 83.32226562 39.31567383 83.32226562 43.31567383 C84.31226563 43.64567383 85.30226562 43.97567383 86.32226562 44.31567383 C87.82226562 46.79223633 87.82226562 46.79223633 89.32226562 49.94067383 C89.84046875 51.02606445 90.35867187 52.11145508 90.89257812 53.22973633 C91.364375 54.2480957 91.83617187 55.26645508 92.32226562 56.31567383 C92.6703125 57.0452832 93.01835937 57.77489258 93.37695312 58.52661133 C94.8672215 61.77681568 95.32226562 63.64629014 95.32226562 67.31567383 C95.98226562 67.31567383 96.64226562 67.31567383 97.32226562 67.31567383 C102.10623412 85.91050374 102.5416309 106.76828653 97.32226562 125.31567383 C96.66226563 125.31567383 96.00226563 125.31567383 95.32226562 125.31567383 C95.26039063 126.22317383 95.19851562 127.13067383 95.13476562 128.06567383 C94.35124764 133.82334385 91.66463843 139.05181759 89.32226562 144.31567383 C88.66226563 144.31567383 88.00226563 144.31567383 87.32226562 144.31567383 C86.66226563 146.62567383 86.00226563 148.93567383 85.32226562 151.31567383 C84.66226563 151.31567383 84.00226563 151.31567383 83.32226562 151.31567383 C83.03351563 152.45004883 82.74476563 153.58442383 82.44726562 154.75317383 C81.89039063 156.51661133 81.89039063 156.51661133 81.32226562 158.31567383 C80.66226563 158.64567383 80.00226563 158.97567383 79.32226562 159.31567383 C78.35344053 160.99913764 77.38839744 162.68499685 76.45068359 164.38598633 C74.68755493 167.40108131 72.55332825 170.08475373 70.38476562 172.81567383 C67.60362503 176.35979571 64.86240105 179.90516938 62.32226562 183.62817383 C61.66226563 184.51504883 61.00226563 185.40192383 60.32226562 186.31567383 C59.66226563 186.31567383 59.00226563 186.31567383 58.32226562 186.31567383 C58.22816406 186.91250977 58.1340625 187.5093457 58.03710938 188.12426758 C57.16164831 190.80805804 56.09069988 191.65837061 53.88476562 193.37817383 C51.40949074 195.32635469 50.11804638 196.62200269 48.32226562 199.31567383 C47.66226563 199.31567383 47.00226563 199.31567383 46.32226562 199.31567383 C45.91041016 200.20125977 45.91041016 200.20125977 45.49023438 201.10473633 C42.31283928 207.11947086 36.85701653 212.42137745 31.32226562 216.31567383 C30.66226563 216.31567383 30.00226563 216.31567383 29.32226562 216.31567383 C28.99226563 217.30567383 28.66226563 218.29567383 28.32226562 219.31567383 C26.75585938 220.89379883 26.75585938 220.89379883 24.75976562 222.56567383 C21.10453372 225.65450943 17.53211453 228.81670719 13.98632812 232.03051758 C12.32226562 233.31567383 12.32226562 233.31567383 10.32226562 233.31567383 C10.32226562 233.97567383 10.32226562 234.63567383 10.32226562 235.31567383 C6.62600889 238.1422231 3.93363831 238.89209541 -0.67773438 238.31567383 C-3.55273437 236.94067383 -3.55273437 236.94067383 -5.67773438 235.31567383 C-5.67773438 234.65567383 -5.67773438 233.99567383 -5.67773438 233.31567383 C-6.76054687 232.97536133 -6.76054687 232.97536133 -7.86523438 232.62817383 C-11.2602574 231.04382975 -13.060859 228.99702294 -15.67773438 226.31567383 C-17.64754647 224.47046626 -19.62341386 222.63662113 -21.61523438 220.81567383 C-22.11474609 220.35547852 -22.61425781 219.8952832 -23.12890625 219.42114258 C-25.65542969 217.1065211 -28.21175016 214.85905963 -30.86523438 212.69067383 C-33.09488788 210.80785531 -34.91835358 209.0677947 -36.74023438 206.81567383 C-38.49412659 204.70189204 -40.22887965 202.76452855 -42.17773438 200.81567383 C-44.68886158 198.30454662 -46.97044227 195.68492548 -49.24804688 192.96411133 C-50.66556726 191.27448427 -50.66556726 191.27448427 -52.35742188 189.72973633 C-53.67773438 188.31567383 -53.67773438 188.31567383 -53.67773438 186.31567383 C-54.33773437 186.31567383 -54.99773437 186.31567383 -55.67773438 186.31567383 C-58.67773438 182.85413537 -58.67773438 182.85413537 -58.67773438 180.31567383 C-59.33773437 180.31567383 -59.99773438 180.31567383 -60.67773438 180.31567383 C-61.33773437 178.66567383 -61.99773438 177.01567383 -62.67773438 175.31567383 C-63.33773437 175.31567383 -63.99773438 175.31567383 -64.67773438 175.31567383 C-65.11085938 174.35661133 -65.11085938 174.35661133 -65.55273438 173.37817383 C-66.50596888 171.16361304 -66.50596888 171.16361304 -68.67773438 170.31567383 C-69.72417503 168.67776671 -70.71755268 167.00559362 -71.67773438 165.31567383 C-72.51304688 163.98536133 -72.51304688 163.98536133 -73.36523438 162.62817383 C-74.67773438 160.31567383 -74.67773438 160.31567383 -74.67773438 158.31567383 C-75.33773437 158.31567383 -75.99773437 158.31567383 -76.67773438 158.31567383 C-78.13836288 155.66828466 -78.67773438 154.42119049 -78.67773438 151.31567383 C-79.33773437 151.31567383 -79.99773437 151.31567383 -80.67773438 151.31567383 C-81.32355469 150.01243164 -81.32355469 150.01243164 -81.98242188 148.68286133 C-83.04570481 146.57099522 -84.13104781 144.46993981 -85.24804688 142.38598633 C-88.31418625 136.57727003 -90.42415775 131.90866615 -90.67773438 125.31567383 C-91.33773437 125.31567383 -91.99773437 125.31567383 -92.67773438 125.31567383 C-97.89709965 106.76828653 -97.46170287 85.91050374 -92.67773438 67.31567383 C-92.01773438 67.31567383 -91.35773438 67.31567383 -90.67773438 67.31567383 C-90.63648438 66.40817383 -90.59523438 65.50067383 -90.55273438 64.56567383 C-89.51733462 57.10470503 -84.82279341 49.49928648 -80.67773438 43.31567383 C-80.01773438 43.31567383 -79.35773438 43.31567383 -78.67773438 43.31567383 C-78.5565625 42.7252832 -78.43539062 42.13489258 -78.31054688 41.52661133 C-76.60804401 35.57836059 -71.96480639 31.43880505 -67.31835938 27.67114258 C-65.49925468 26.21790995 -65.49925468 26.21790995 -63.36523438 23.94067383 C-61.67773438 22.31567383 -61.67773438 22.31567383 -59.67773438 22.31567383 C-59.18273438 20.83067383 -59.18273438 20.83067383 -58.67773438 19.31567383 C-41.4483083 5.96529302 -21.49617588 -0.06850764 0 0 Z M-3.42773438 37.19067383 C-4.04132813 37.7243457 -4.65492187 38.25801758 -5.28710938 38.80786133 C-6.90372226 40.21884242 -6.90372226 40.21884242 -6.67773438 42.31567383 C-7.42023438 42.56317383 -8.16273437 42.81067383 -8.92773438 43.06567383 C-11.90796524 44.42032422 -13.57692689 45.82582792 -15.67773438 48.31567383 C-15.67773438 48.97567383 -15.67773438 49.63567383 -15.67773438 50.31567383 C-17.32773438 50.97567383 -18.97773437 51.63567383 -20.67773438 52.31567383 C-20.67773438 52.97567383 -20.67773438 53.63567383 -20.67773438 54.31567383 C-21.51304688 54.68692383 -21.51304688 54.68692383 -22.36523438 55.06567383 C-25.10184351 56.54492201 -27.35424307 58.25034822 -29.67773438 60.31567383 C-29.67773438 60.97567383 -29.67773438 61.63567383 -29.67773438 62.31567383 C-30.76054688 62.65598633 -30.76054688 62.65598633 -31.86523438 63.00317383 C-35.24205855 64.57902511 -37.23540477 66.52443999 -39.67773438 69.31567383 C-39.67773438 69.97567383 -39.67773438 70.63567383 -39.67773438 71.31567383 C-41.32773438 71.97567383 -42.97773437 72.63567383 -44.67773438 73.31567383 C-44.67773438 73.97567383 -44.67773438 74.63567383 -44.67773438 75.31567383 C-45.99773437 75.97567383 -47.31773438 76.63567383 -48.67773438 77.31567383 C-48.67773438 77.97567383 -48.67773438 78.63567383 -48.67773438 79.31567383 C-50.32773438 79.97567383 -51.97773437 80.63567383 -53.67773438 81.31567383 C-53.67773438 81.97567383 -53.67773438 82.63567383 -53.67773438 83.31567383 C-54.99773437 83.97567383 -56.31773438 84.63567383 -57.67773438 85.31567383 C-57.67773438 86.63567383 -57.67773438 87.95567383 -57.67773438 89.31567383 C-55.03773437 89.64567383 -52.39773437 89.97567383 -49.67773438 90.31567383 C-49.34773438 107.47567383 -49.01773438 124.63567383 -48.67773438 142.31567383 C-37.45773438 142.31567383 -26.23773438 142.31567383 -14.67773438 142.31567383 C-13.35362431 139.6674537 -13.65881036 137.82629189 -13.79882812 134.87036133 C-13.84716797 133.79399414 -13.89550781 132.71762695 -13.9453125 131.60864258 C-14.02942383 129.91674805 -14.02942383 129.91674805 -14.11523438 128.19067383 C-14.19354492 126.48717773 -14.19354492 126.48717773 -14.2734375 124.74926758 C-14.40337893 121.93780752 -14.53835352 119.12667918 -14.67773438 116.31567383 C-14.01773438 116.31567383 -13.35773438 116.31567383 -12.67773438 116.31567383 C-12.45085937 115.36692383 -12.22398438 114.41817383 -11.99023438 113.44067383 C-10.67773438 110.31567383 -10.67773438 110.31567383 -8.05273438 108.94067383 C-6.87710938 108.63129883 -6.87710938 108.63129883 -5.67773438 108.31567383 C-5.67773438 107.65567383 -5.67773438 106.99567383 -5.67773438 106.31567383 C-0.39773437 106.31567383 4.88226563 106.31567383 10.32226562 106.31567383 C10.32226562 106.97567383 10.32226562 107.63567383 10.32226562 108.31567383 C11.10601562 108.52192383 11.88976562 108.72817383 12.69726562 108.94067383 C15.32226562 110.31567383 15.32226562 110.31567383 16.63476562 113.44067383 C16.86164063 114.38942383 17.08851563 115.33817383 17.32226562 116.31567383 C17.98226562 116.31567383 18.64226562 116.31567383 19.32226562 116.31567383 C19.28673584 117.06776123 19.25120605 117.81984863 19.21459961 118.59472656 C19.05763269 121.98065236 18.90859347 125.36688094 18.75976562 128.75317383 C18.70369141 129.93717773 18.64761719 131.12118164 18.58984375 132.34106445 C18.54150391 133.46577148 18.49316406 134.59047852 18.44335938 135.74926758 C18.39622803 136.79139404 18.34909668 137.83352051 18.30053711 138.90722656 C18.04054221 141.26751671 18.04054221 141.26751671 19.32226562 142.31567383 C21.84294744 142.40414217 24.33680979 142.43101907 26.85742188 142.41333008 C27.5247937 142.412323 28.19216553 142.41131592 28.87976074 142.41027832 C31.38144642 142.40503191 33.88310769 142.39107074 36.38476562 142.37817383 C44.76882812 142.34723633 44.76882812 142.34723633 53.32226562 142.31567383 C53.65226562 125.15567383 53.98226562 107.99567383 54.32226562 90.31567383 C56.96226562 89.98567383 59.60226563 89.65567383 62.32226562 89.31567383 C61.99226563 87.66567383 61.66226563 86.01567383 61.32226562 84.31567383 C59.83726562 83.82067383 59.83726562 83.82067383 58.32226562 83.31567383 C57.99226563 82.32567383 57.66226563 81.33567383 57.32226562 80.31567383 C56.68289062 80.17129883 56.04351562 80.02692383 55.38476562 79.87817383 C53.32226562 79.31567383 53.32226562 79.31567383 52.07226562 77.25317383 C51.82476562 76.61379883 51.57726562 75.97442383 51.32226562 75.31567383 C50.66226563 75.31567383 50.00226563 75.31567383 49.32226562 75.31567383 C48.99226563 74.32567383 48.66226563 73.33567383 48.32226562 72.31567383 C47.66226563 72.15067383 47.00226563 71.98567383 46.32226562 71.81567383 C45.66226563 71.65067383 45.00226563 71.48567383 44.32226562 71.31567383 C43.99226563 70.32567383 43.66226563 69.33567383 43.32226562 68.31567383 C41.76379419 66.65667708 41.76379419 66.65667708 39.88476562 65.12817383 C38.95857422 64.3334668 38.95857422 64.3334668 38.01367188 63.52270508 C36.3972576 62.12204633 36.3972576 62.12204633 34.32226562 62.31567383 C34.32226562 61.65567383 34.32226562 60.99567383 34.32226562 60.31567383 C32.8380033 58.73375565 32.8380033 58.73375565 30.94726562 57.19067383 C30.32078125 56.6518457 29.69429688 56.11301758 29.04882812 55.55786133 C27.40618135 54.12100236 27.40618135 54.12100236 25.32226562 54.31567383 C24.82726562 52.83067383 24.82726562 52.83067383 24.32226562 51.31567383 C23.66226563 51.15067383 23.00226563 50.98567383 22.32226562 50.81567383 C21.66226563 50.65067383 21.00226563 50.48567383 20.32226562 50.31567383 C19.82726562 48.83067383 19.82726562 48.83067383 19.32226562 47.31567383 C15.8429109 43.67554316 15.8429109 43.67554316 11.32226562 42.31567383 C10.82726562 40.83067383 10.82726562 40.83067383 10.32226562 39.31567383 C5.45449735 34.66425081 2.06678615 32.28317472 -3.42773438 37.19067383 Z " fill="#581845" transform="translate(122.677734375,5.684326171875)"/>
</svg>
